<?xml version="1.0" standalone="no"?>
<!DOCTYPE svg PUBLIC "-//W3C//DTD SVG 20010904//EN"
 "http://www.w3.org/TR/2001/REC-SVG-20010904/DTD/svg10.dtd">
<svg version="1.0" xmlns="http://www.w3.org/2000/svg"
 width="512.000000pt" height="512.000000pt" viewBox="0 0 512.000000 512.000000"
 preserveAspectRatio="xMidYMid meet">

<g transform="translate(0.000000,512.000000) scale(0.100000,-0.100000)"
fill="#000000" stroke="none">
<path d="M0 2560 l0 -2560 2560 0 2560 0 0 2560 0 2560 -2560 0 -2560 0 0
-2560z m2660 863 c44 -31 100 -91 110 -119 10 -26 8 -31 -31 -67 -57 -53 -95
-67 -176 -67 -101 1 -138 22 -217 121 -36 46 -66 91 -66 101 0 25 104 46 240
47 94 1 120 -2 140 -16z m252 -24 c100 -26 203 -73 212 -96 13 -32 -22 -45
-99 -39 -85 8 -156 39 -213 95 -68 66 -42 76 100 40z m-724 -43 c57 -30 152
-159 152 -206 0 -16 -11 -37 -29 -54 -24 -23 -43 -29 -137 -41 -142 -19 -204
-19 -256 2 -184 70 -132 171 142 279 99 39 93 38 128 20z m2139 -112 c32 -24
41 -44 19 -44 -26 0 -29 -20 -7 -44 28 -30 30 -101 2 -109 -11 -3 -22 -17 -26
-36 -4 -21 -19 -40 -44 -57 -43 -28 -172 -66 -210 -62 -40 5 -40 53 -1 117 18
28 30 56 28 63 -4 10 -31 -19 -96 -102 l-20 -24 -41 37 c-23 20 -46 37 -51 37
-16 0 -12 -40 5 -46 8 -4 15 -17 15 -31 0 -13 4 -21 10 -18 12 7 53 -19 43
-28 -3 -4 -16 -4 -28 -1 -19 5 -21 2 -17 -30 3 -23 -2 -46 -13 -62 -22 -34
-30 -24 -15 18 11 29 10 45 -8 109 -12 41 -24 86 -27 102 -3 15 -10 27 -15 27
-14 0 -12 -48 6 -140 15 -71 14 -104 -1 -89 -2 3 -12 43 -22 90 -10 47 -22 82
-28 79 -6 -3 -9 -12 -8 -20 9 -68 6 -211 -5 -222 -9 -9 -12 -2 -12 38 0 71
-11 125 -24 121 -6 -2 -16 -26 -22 -53 -12 -52 -14 -50 -34 34 -16 69 -8 94
45 151 24 26 53 67 63 92 23 53 52 81 112 109 41 19 59 21 222 17 159 -3 181
-5 205 -23z m-1002 -49 c86 -59 169 -130 182 -155 20 -39 16 -103 -8 -134 -28
-36 -69 -34 -114 5 -43 38 -187 205 -203 236 -16 30 -15 64 4 91 14 21 17 21
52 7 20 -9 60 -31 87 -50z m-243 -25 c46 -32 195 -214 266 -327 65 -102 53
-152 -65 -270 -115 -115 -261 -177 -298 -127 -7 10 -39 95 -70 188 -32 93 -84
229 -116 302 -32 73 -59 139 -59 147 0 26 43 69 94 94 44 21 62 24 133 20 65
-3 88 -8 115 -27z m-1495 -179 c-69 -69 -138 -141 -152 -158 -32 -39 -60 -45
-50 -10 19 61 181 237 275 299 39 25 45 26 48 12 3 -10 -42 -62 -121 -143z
m1076 61 c56 -58 147 -296 207 -545 35 -142 36 -158 12 -180 -67 -61 -386
-122 -452 -87 -26 14 -48 82 -55 170 -3 41 -15 138 -26 215 -34 237 -39 291
-29 327 22 77 116 127 241 128 69 0 77 -2 102 -28z m-860 -40 c68 -46 71 -78
21 -275 -19 -78 -44 -184 -55 -237 -25 -123 -37 -157 -56 -164 -36 -14 -230
85 -281 144 -27 31 -64 121 -58 143 7 30 80 150 132 217 53 70 153 170 179
181 35 14 89 10 118 -9z m405 -68 c31 -20 36 -38 61 -190 24 -150 39 -500 22
-524 -16 -23 -185 -17 -287 10 -107 29 -155 57 -166 95 -10 37 -2 127 24 264
45 242 97 338 192 362 41 10 125 1 154 -17z m1423 -148 c25 -65 30 -92 27
-137 -4 -61 -37 -119 -67 -119 -25 0 -90 49 -123 92 l-27 35 62 121 c58 113
63 120 79 105 10 -9 32 -52 49 -97z m-2340 -134 c15 -40 2 -80 -34 -99 -18 -9
-52 -31 -76 -50 -24 -18 -48 -33 -52 -33 -12 0 -11 63 0 93 11 29 130 129 143
121 5 -3 14 -18 19 -32z m-359 -52 c20 -17 53 -37 72 -45 34 -14 49 -35 26
-35 -39 0 -150 72 -150 96 0 21 12 17 52 -16z m2530 -57 c77 -68 81 -76 64
-115 -26 -62 -186 -202 -288 -254 -94 -47 -108 -45 -137 19 -13 28 -26 70 -28
92 -5 40 -5 40 79 102 45 34 118 93 161 132 43 39 82 71 87 71 5 0 33 -21 62
-47z m-1984 -203 c1 -4 -19 -34 -46 -66 -27 -33 -54 -69 -61 -81 -6 -13 -18
-23 -25 -23 -16 0 -130 100 -168 148 -16 19 -28 45 -28 58 0 33 52 88 112 118
l52 26 81 -86 c44 -48 81 -90 83 -94z m2486 166 c42 -17 61 -42 25 -33 -16 4
-33 -1 -56 -19 l-32 -25 -7 27 c-6 23 -10 26 -40 21 -25 -4 -34 -2 -34 8 0 34
84 46 144 21z m82 -133 c-5 -12 -10 -13 -17 -6 -8 8 -7 18 2 34 12 21 14 22
17 6 2 -10 1 -25 -2 -34z m-2936 -60 c-1 -5 -11 -21 -24 -36 -19 -24 -24 -26
-29 -13 -4 9 -13 16 -22 16 -11 0 -15 -11 -15 -39 0 -22 -4 -43 -10 -46 -6 -4
-10 8 -10 29 0 23 -5 36 -13 36 -22 0 -26 -11 -15 -35 9 -21 6 -28 -26 -58
-20 -19 -36 -42 -36 -51 0 -12 -6 -15 -25 -10 -28 7 -29 5 -16 -29 9 -23 7
-25 -23 -29 l-33 -4 13 42 c32 109 69 149 184 203 63 30 100 39 100 24z m2449
-12 c10 -17 7 -19 -29 -17 -37 1 -50 13 -33 29 13 14 53 6 62 -12z m531 10 c0
-13 -29 -35 -37 -28 -7 8 15 37 28 37 5 0 9 -4 9 -9z m-2452 -36 c26 -12 72
-30 102 -40 30 -10 59 -21 63 -25 11 -9 -40 -165 -58 -180 -27 -23 -294 63
-319 102 -14 23 9 67 70 130 51 53 57 54 142 13z m1396 -70 c29 -72 32 -98 14
-112 -32 -23 -203 -81 -263 -90 l-41 -5 -19 48 c-10 27 -19 67 -19 89 l-1 40
75 27 c41 14 106 38 145 51 38 14 73 23 76 21 4 -2 19 -33 33 -69z m480 29
c12 -32 5 -76 -19 -124 -15 -29 -25 -66 -25 -91 0 -31 -3 -40 -14 -36 -19 8
-37 -14 -87 -107 -39 -72 -43 -77 -55 -60 -25 36 -35 44 -54 44 -26 0 -25 13
3 46 21 24 25 25 45 13 17 -10 26 -11 40 -3 25 16 21 37 -8 44 -36 9 -31 32
13 53 36 18 51 47 23 47 -20 0 -8 38 14 45 26 8 70 44 70 57 0 7 -13 8 -35 5
-19 -3 -35 -2 -35 2 0 16 80 81 99 81 10 0 22 -7 25 -16z m76 -24 c0 -11 -4
-21 -9 -25 -12 -7 -34 32 -26 45 9 15 35 0 35 -20z m508 8 c-3 -7 -13 -15 -24
-17 -16 -3 -17 -1 -5 13 16 19 34 21 29 4z m-2123 -44 c44 -8 125 -18 180 -22
l100 -7 -3 -73 c-4 -115 -5 -116 -123 -107 -111 7 -277 39 -293 55 -20 20 25
170 52 170 4 0 43 -7 87 -16z m667 -69 c5 -22 8 -60 6 -85 -3 -42 -5 -45 -38
-51 -31 -7 -152 -11 -252 -10 l-38 1 0 79 c0 44 2 85 5 93 4 10 40 13 157 13
l152 0 8 -40z m1468 35 c0 -5 -4 -10 -10 -10 -5 0 -10 5 -10 10 0 6 5 10 10
10 6 0 10 -4 10 -10z m-2542 -161 c55 -28 63 -42 21 -37 -39 4 -51 -17 -14
-26 19 -5 25 -12 21 -22 -3 -9 -6 -24 -6 -35 0 -14 -7 -19 -29 -19 -32 0 -51
-18 -31 -30 7 -4 10 -23 9 -44 -2 -24 1 -40 11 -46 19 -11 11 -18 -28 -26 -21
-4 -32 -3 -32 5 0 18 -35 13 -63 -9 -14 -11 -30 -20 -35 -20 -6 0 -9 42 -8
109 3 105 4 110 39 167 53 86 55 88 80 70 12 -9 41 -26 65 -37z m-683 30 c11
-17 -1 -21 -15 -4 -8 9 -8 15 -2 15 6 0 14 -5 17 -11z m-65 -45 c0 -8 -5 -12
-10 -9 -6 4 -8 11 -5 16 9 14 15 11 15 -7z m2420 -149 c7 -8 10 -22 6 -30 -4
-12 -10 -13 -31 -3 -27 12 -33 33 -12 41 20 9 24 8 37 -8z m-80 -65 c0 -12
-28 -25 -36 -17 -9 9 6 27 22 27 8 0 14 -5 14 -10z m68 -48 c2 -7 -6 -12 -17
-12 -21 0 -27 11 -14 24 9 9 26 2 31 -12z m-1773 -47 c0 -17 -5 -25 -18 -25
-16 0 -16 2 -1 25 9 14 17 25 18 25 0 0 1 -11 1 -25z m128 -1 c9 -9 -19 -34
-37 -34 -26 0 -28 20 -4 29 29 12 33 13 41 5z m97 -35 c0 -5 -4 -9 -10 -9 -5
0 -10 7 -10 16 0 8 5 12 10 9 6 -3 10 -10 10 -16z"/>
<path d="M4092 3228 c-28 -28 1 -109 47 -132 40 -21 67 -20 91 4 45 45 2 140
-64 140 -18 0 -38 -6 -45 -12 -11 -10 -13 -10 -7 0 9 15 -6 16 -22 0z m84 -61
c8 -4 14 -12 14 -17 0 -14 -23 -12 -45 4 -17 12 -18 16 -5 31 11 13 15 14 19
4 2 -8 10 -18 17 -22z"/>
<path d="M1450 1915 c-7 -9 -10 -18 -7 -22 8 -7 37 15 37 28 0 14 -16 11 -30
-6z"/>
</g>
</svg>
